<mxfile host="app.diagrams.net" modified="2022-11-13T10:34:22.954Z" agent="5.0 (iPad; CPU OS 15_5 like Mac OS X) AppleWebKit/605.1.15 (KHTML, like Gecko) CriOS/107.0.5304.101 Mobile/15E148 Safari/604.1" etag="dvkMoeM_26p1PybcX_d6" version="20.5.3" type="github">
  <diagram id="zakXt2mR-U0YP79S-Iq2" name="Page-1">
    <mxGraphModel dx="439" dy="389" grid="1" gridSize="10" guides="1" tooltips="1" connect="1" arrows="1" fold="1" page="1" pageScale="1" pageWidth="827" pageHeight="1169" math="0" shadow="0">
      <root>
        <mxCell id="0" />
        <mxCell id="1" parent="0" />
        <mxCell id="NImPXQZJimW4r6h6MOMr-1" value="" style="shape=actor;whiteSpace=wrap;html=1;strokeColor=default;verticalAlign=middle;fontStyle=0" parent="1" vertex="1">
          <mxGeometry x="660" y="130" width="30" height="40" as="geometry" />
        </mxCell>
        <mxCell id="NImPXQZJimW4r6h6MOMr-2" value="" style="endArrow=none;dashed=1;html=1;rounded=0;entryX=0.875;entryY=1;entryDx=0;entryDy=0;entryPerimeter=0;" parent="1" target="NImPXQZJimW4r6h6MOMr-1" edge="1">
          <mxGeometry width="50" height="50" relative="1" as="geometry">
            <mxPoint x="680" y="670" as="sourcePoint" />
            <mxPoint x="590" y="180" as="targetPoint" />
          </mxGeometry>
        </mxCell>
        <mxCell id="NImPXQZJimW4r6h6MOMr-3" value="وزارة التجارة" style="rounded=0;whiteSpace=wrap;html=1;strokeColor=default;" parent="1" vertex="1">
          <mxGeometry x="340" y="140" width="110" height="40" as="geometry" />
        </mxCell>
        <mxCell id="NImPXQZJimW4r6h6MOMr-5" value="" style="endArrow=none;dashed=1;html=1;rounded=0;" parent="1" edge="1">
          <mxGeometry width="50" height="50" relative="1" as="geometry">
            <mxPoint x="400" y="660" as="sourcePoint" />
            <mxPoint x="400" y="190" as="targetPoint" />
            <Array as="points" />
          </mxGeometry>
        </mxCell>
        <mxCell id="NImPXQZJimW4r6h6MOMr-6" value="" style="endArrow=classic;html=1;rounded=0;" parent="1" edge="1">
          <mxGeometry width="50" height="50" relative="1" as="geometry">
            <mxPoint x="670" y="260" as="sourcePoint" />
            <mxPoint x="400" y="260" as="targetPoint" />
          </mxGeometry>
        </mxCell>
        <mxCell id="NImPXQZJimW4r6h6MOMr-8" value="اختيار تسجيل الدخول عبر تطبيق نفاذ" style="text;html=1;align=center;verticalAlign=middle;resizable=0;points=[];autosize=1;strokeColor=none;fillColor=none;" parent="1" vertex="1">
          <mxGeometry x="445" y="225" width="180" height="30" as="geometry" />
        </mxCell>
        <mxCell id="NImPXQZJimW4r6h6MOMr-9" value="" style="endArrow=classic;html=1;rounded=0;" parent="1" edge="1">
          <mxGeometry width="50" height="50" relative="1" as="geometry">
            <mxPoint x="410" y="320" as="sourcePoint" />
            <mxPoint x="670" y="320" as="targetPoint" />
          </mxGeometry>
        </mxCell>
        <mxCell id="NImPXQZJimW4r6h6MOMr-21" value="“PIN&quot; عرض صفحة ادخال الرمز الشخصي الخاص بتطبيق نفاذ" style="text;html=1;align=center;verticalAlign=middle;resizable=0;points=[];autosize=1;strokeColor=none;fillColor=none;fontSize=11;" parent="1" vertex="1">
          <mxGeometry x="400" y="285" width="270" height="30" as="geometry" />
        </mxCell>
        <mxCell id="NImPXQZJimW4r6h6MOMr-24" value="" style="endArrow=classic;html=1;rounded=0;fontSize=11;" parent="1" edge="1">
          <mxGeometry width="50" height="50" relative="1" as="geometry">
            <mxPoint x="670" y="370" as="sourcePoint" />
            <mxPoint x="410" y="370" as="targetPoint" />
          </mxGeometry>
        </mxCell>
        <mxCell id="NImPXQZJimW4r6h6MOMr-25" value="“PIN&quot; ادخال الرمز الشخصي الخاص بتطبيق نفاذ" style="text;html=1;align=center;verticalAlign=middle;resizable=0;points=[];autosize=1;strokeColor=none;fillColor=none;fontSize=11;" parent="1" vertex="1">
          <mxGeometry x="425" y="340" width="220" height="30" as="geometry" />
        </mxCell>
        <mxCell id="eNSrUANOF6Io8pQ0f3hf-1" value="تطبيق نفاذ" style="rounded=0;whiteSpace=wrap;html=1;strokeColor=default;" vertex="1" parent="1">
          <mxGeometry x="60" y="140" width="110" height="40" as="geometry" />
        </mxCell>
        <mxCell id="eNSrUANOF6Io8pQ0f3hf-2" value="" style="endArrow=none;dashed=1;html=1;rounded=0;" edge="1" parent="1">
          <mxGeometry width="50" height="50" relative="1" as="geometry">
            <mxPoint x="120" y="640" as="sourcePoint" />
            <mxPoint x="120" y="170" as="targetPoint" />
            <Array as="points" />
          </mxGeometry>
        </mxCell>
        <mxCell id="eNSrUANOF6Io8pQ0f3hf-4" value="" style="endArrow=classic;html=1;rounded=0;" edge="1" parent="1">
          <mxGeometry width="50" height="50" relative="1" as="geometry">
            <mxPoint x="370" y="410" as="sourcePoint" />
            <mxPoint x="140" y="410" as="targetPoint" />
          </mxGeometry>
        </mxCell>
        <mxCell id="eNSrUANOF6Io8pQ0f3hf-5" value="ارسارسال الرمز الشخصي &quot;PIN” والرمز الخاص بالجلسة &quot;Token”" style="text;html=1;align=center;verticalAlign=middle;resizable=0;points=[];autosize=1;strokeColor=none;fillColor=none;fontSize=10;" vertex="1" parent="1">
          <mxGeometry x="130" y="370" width="260" height="30" as="geometry" />
        </mxCell>
      </root>
    </mxGraphModel>
  </diagram>
</mxfile>
